#!OML:ASF H:\Terrain\Patient Classification 1\Terrain2\Thursday\justin.ASF
:FULLY-SPECIFIED
:DEGREES
3451
root 21.4716 21.7411 10.9246 1382.65 79.1539 -46.1334
lowerback 5.23652 1.31628 6.8907
upperback 3.29166 2.19371 3.66239
thorax 0.578508 1.228 -0.177583
lowerneck -9.94821 -0.495959 -8.83669
upperneck 40.4569 2.74801 3.03014
head 15.9385 0.950326 3.55761
rclavicle 3.55203e-014 4.81059e-014
rhumerus -34.0624 5.77163 -87.0535
rradius 45.253
rwrist -13.9739
rhand -19.6517 9.6556
rfingers 7.12502
rthumb 6.67602 -20.2192
lclavicle 3.55203e-014 4.81059e-014
lhumerus -38.812 8.40504 80.9716
lradius 24.7202
lwrist -2.2233
lhand -21.7853 19.4498
lfingers 7.12502
lthumb 4.61604 49.3795
rfemur 12.2017 -4.60776 27.5984
rtibia 55.7424
rfoot -34.8691 5.15783
rtoes -11.9496
lfemur -23.388 -1.38825 -7.67596
ltibia 21.2329
lfoot 28.488 3.07913
ltoes 6.28105
3452
root 21.6352 21.631 10.9082 1383.27 78.9773 -45.4551
lowerback 4.83596 1.24823 7.00293
upperback 3.17387 2.06973 3.64157
thorax 0.67871 1.16591 -0.246494
lowerneck -9.89325 -0.415397 -8.755
upperneck 40.8261 3.00027 2.80197
head 16.112 1.03797 3.50184
rclavicle 2.18787e-014 1.82882e-014
rhumerus -34.6196 5.70086 -87.0537
rradius 45.5856
rwrist -13.9164
rhand -19.455 9.33311
rfingers 7.12502
rthumb 6.86591 -20.5356
lclavicle 2.18787e-014 1.82882e-014
lhumerus -39.3935 8.66451 80.813
lradius 24.8132
lwrist -2.30396
lhand -21.714 19.9913
lfingers 7.12502
lthumb 4.68492 49.9195
rfemur 11.9247 -4.45249 27.3017
rtibia 57.7448
rfoot -34.5993 6.37205
rtoes -11.4657
lfemur -22.5507 -1.75913 -7.59096
ltibia 20.3017
lfoot 28.904 3.10997
ltoes 6.81371
3453
root 21.796 21.5112 10.8689 1383.83 78.6418 -45.0213
lowerback 4.37925 1.30432 7.60819
upperback 2.95085 2.12761 3.58906
thorax 0.733104 1.19823 -0.626927
lowerneck -9.57449 -0.418181 -8.8241
upperneck 41.0354 2.99539 2.89663
head 16.1435 1.04737 3.56122
rclavicle -5.21561e-014 -3.57812e-014
rhumerus -35.4773 4.37383 -86.5648
rradius 46.4867
rwrist -13.0074
rhand -18.5259 9.21707
rfingers 7.12502
rthumb 7.76272 -20.6204
lclavicle -5.21561e-014 -3.57812e-014
lhumerus -39.8052 8.61474 80.796
lradius 24.6735
lwrist -2.16415
lhand -21.6353 20.3498
lfingers 7.12502
lthumb 4.76094 50.2763
rfemur 11.3987 -4.19719 27.0652
rtibia 59.728
rfoot -34.0051 7.71373
rtoes -10.5317
lfemur -21.9148 -1.62924 -7.53746
ltibia 19.4266
lfoot 29.3187 3.20173
ltoes 6.81436
3454
root 21.9783 21.391 10.8595 1384 78.5075 -44.7272
lowerback 3.80497 1.26292 7.52119
upperback 2.89505 2.01098 3.71486
thorax 0.980803 1.14318 -0.4297
lowerneck -9.25655 -0.330976 -8.90839
upperneck 41.0507 3.17074 2.80634
head 16.0636 1.10621 3.55621
rclavicle 1.23495e-014 2.0276e-014
rhumerus -36.4162 3.56245 -86.0589
rradius 47.5882
rwrist -12.2883
rhand -17.7554 9.10803
rfingers 7.12502
rthumb 8.50639 -20.7006
lclavicle 1.23495e-014 2.0276e-014
lhumerus -40.3067 8.52406 81.0469
lradius 24.6871
lwrist -1.53736
lhand -21.426 20.4604
lfingers 7.12502
lthumb 4.96306 50.3822
rfemur 11.4293 -4.18121 26.7433
rtibia 61.5087
rfoot -33.7113 8.23796
rtoes -11.5818
lfemur -20.909 -0.974642 -7.75241
ltibia 18.6547
lfoot 29.7667 2.84506
ltoes 6.11477
3455
root 22.1672 21.2704 10.8539 1384 78.419 -44.548
lowerback 3.25076 1.15087 7.39618
upperback 2.87659 1.79873 3.78391
thorax 1.25225 1.04105 -0.269832
lowerneck -9.16866 -0.191351 -8.83525
upperneck 41.2066 3.47426 2.58851
head 16.112 1.21802 3.49936
rclavicle 2.48481e-015 -1.82882e-014
rhumerus -37.0782 4.45854 -86.1676
rradius 47.855
rwrist -13.2649
rhand -17.9523 9.10952
rfingers 7.12502
rthumb 8.3164 -20.7068
lclavicle 2.48481e-015 -1.82882e-014
lhumerus -40.9448 8.18451 81.3242
lradius 24.8814
lwrist -0.867943
lhand -21.0878 20.2373
lfingers 7.12502
lthumb 5.2896 50.1512
rfemur 11.6629 -4.22111 26.3725
rtibia 63.1059
rfoot -33.6597 8.69477
rtoes -13.0979
lfemur -19.7704 -0.414769 -8.0323
ltibia 17.9526
lfoot 30.4049 1.91634
ltoes 3.15405
3456
root 22.3513 21.1414 10.8544 1384.09 78.5494 -44.2461
lowerback 2.88367 1.11921 7.11898
upperback 2.81119 1.71001 3.69189
thorax 1.37856 0.99182 -0.202233
lowerneck -9.05073 -0.138201 -8.61451
upperneck 41.307 3.53413 2.51955
head 16.1362 1.27154 3.44182
rclavicle 5.56597e-015 2.70347e-014
rhumerus -37.7315 4.88463 -86.276
rradius 47.9257
rwrist -14.2339
rhand -18.3902 9.52503
rfingers 7.12502
rthumb 7.89372 -20.3076
lclavicle 5.56597e-015 2.70347e-014
lhumerus -41.3731 7.81102 81.323
lradius 24.8684
lwrist -0.450115
lhand -20.8641 19.9964
lfingers 7.12502
lthumb 5.50559 49.9049
rfemur 11.9872 -4.21155 25.87
rtibia 64.5671
rfoot -33.3573 9.82015
rtoes -12.456
lfemur -18.6187 -0.112219 -8.43477
ltibia 17.297
lfoot 31.221 1.8672
ltoes 2.6723
